<?xml version="1.0" standalone="no"?>
<!DOCTYPE svg PUBLIC "-//W3C//DTD SVG 20010904//EN"
 "http://www.w3.org/TR/2001/REC-SVG-20010904/DTD/svg10.dtd">
<svg version="1.0" xmlns="http://www.w3.org/2000/svg"
 width="512.000000pt" height="512.000000pt" viewBox="0 0 512.000000 512.000000"
 preserveAspectRatio="xMidYMid meet">

<g transform="translate(0.000000,512.000000) scale(0.100000,-0.100000)"
fill="#000000" stroke="none">
<path d="M2330 5114 c-19 -2 -78 -9 -130 -15 -892 -102 -1694 -725 -2025
-1573 -95 -243 -148 -481 -170 -773 l-6 -83 68 0 c100 0 169 21 343 105 85 41
179 81 209 89 51 15 221 22 233 11 3 -3 -14 -46 -38 -95 -24 -49 -44 -94 -44
-99 0 -7 -22 -11 -53 -11 -85 0 -162 -25 -323 -105 -155 -78 -242 -104 -338
-105 l-49 0 6 -81 c4 -44 9 -84 12 -90 9 -13 102 -11 162 5 29 8 113 46 186
85 137 72 220 101 290 101 33 0 38 -3 32 -17 -3 -10 -14 -53 -22 -95 -15 -76
-17 -78 -45 -78 -47 0 -147 -38 -237 -92 -119 -70 -197 -98 -275 -98 l-64 0 8
-33 c4 -17 15 -62 25 -99 l17 -68 43 0 c60 0 115 22 217 86 90 57 185 94 239
94 l30 0 -3 -82 -3 -83 -45 -6 c-64 -10 -92 -22 -188 -85 -89 -58 -134 -79
-195 -89 -20 -3 -37 -8 -37 -11 0 -3 17 -46 37 -95 50 -118 58 -118 198 -13
89 67 148 94 206 94 46 0 47 0 52 -37 4 -21 9 -53 13 -70 l6 -33 -41 0 c-53 0
-108 -28 -191 -96 -35 -30 -79 -59 -97 -65 -18 -6 -33 -14 -33 -17 1 -13 97
-166 107 -169 5 -2 43 26 84 62 77 68 139 105 177 105 32 0 36 19 17 85 -9 31
-15 58 -13 60 2 2 34 9 71 15 87 14 182 49 249 94 84 56 84 56 90 123 8 86 50
166 175 330 137 180 157 223 150 317 -3 39 -22 130 -42 201 -31 110 -38 150
-42 261 -5 121 -3 139 21 223 29 101 60 168 116 251 38 56 150 173 158 166 2
-3 -14 -28 -35 -58 -58 -79 -108 -173 -139 -263 -26 -73 -28 -93 -29 -225 0
-145 0 -145 49 -315 43 -145 50 -183 50 -260 1 -113 -16 -152 -150 -331 -118
-158 -139 -194 -158 -268 -25 -95 -4 -191 78 -354 l34 -68 -41 -34 c-111 -95
-240 -160 -359 -180 -88 -15 -114 -3 -148 67 -22 47 -28 52 -50 46 -52 -12
-93 -38 -163 -103 l-72 -67 28 -39 c15 -22 42 -56 61 -78 l33 -38 49 52 c48
51 111 100 146 113 12 4 23 -6 42 -38 30 -50 32 -65 10 -65 -16 0 -114 -88
-145 -131 l-18 -26 75 -68 75 -68 16 24 c24 34 108 119 119 119 5 -1 21 -17
37 -37 l27 -37 -33 -35 c-47 -50 -79 -99 -73 -110 6 -9 137 -109 163 -125 8
-4 16 7 24 36 17 65 49 122 139 248 46 63 97 144 114 180 27 58 31 75 31 153
l0 88 27 -58 c22 -45 28 -73 28 -125 0 -83 -21 -141 -95 -268 -86 -146 -135
-251 -138 -294 -2 -39 -1 -40 63 -77 36 -20 68 -35 73 -32 4 2 7 17 7 32 0 49
39 150 124 320 106 212 120 253 114 345 -5 79 -34 146 -129 297 -127 203 -164
324 -135 439 21 80 53 136 164 282 177 235 184 287 82 588 -73 215 -86 333
-54 488 30 147 113 302 212 394 86 81 99 78 39 -9 -118 -170 -159 -289 -159
-473 0 -130 9 -166 93 -405 52 -146 53 -153 54 -260 0 -105 -2 -114 -32 -175
-18 -36 -73 -119 -124 -185 -140 -184 -169 -258 -148 -371 15 -78 44 -142 129
-275 101 -158 140 -238 153 -314 18 -105 2 -159 -123 -410 -106 -215 -130
-279 -130 -348 0 -35 4 -38 153 -93 15 -5 17 1 17 48 0 89 25 163 134 388 58
118 110 239 116 269 27 117 -1 198 -153 439 -120 191 -140 241 -141 347 -1 69
3 89 30 145 17 36 70 117 118 180 126 165 149 213 154 325 5 113 -8 170 -87
358 -89 212 -110 320 -91 457 24 170 99 321 221 439 53 52 89 75 89 56 0 -2
-20 -33 -45 -69 -97 -138 -138 -270 -139 -446 -1 -137 11 -181 114 -423 86
-201 104 -273 97 -389 -6 -111 -42 -190 -151 -333 -103 -135 -130 -191 -134
-282 -6 -109 21 -174 153 -377 42 -65 93 -152 113 -195 35 -71 37 -82 37 -171
0 -116 -11 -150 -112 -359 -100 -208 -123 -277 -130 -383 l-6 -87 39 -10 c59
-15 128 -30 141 -31 9 0 10 14 6 48 -7 58 10 175 38 262 12 36 52 131 90 212
115 242 132 311 105 416 -21 81 -51 139 -156 302 -103 159 -122 196 -145 275
-35 118 -5 210 121 378 82 109 118 177 129 244 3 22 15 49 26 59 19 17 23 17
108 -4 111 -28 181 -28 287 0 80 21 84 21 103 4 11 -10 25 -40 30 -67 15 -70
51 -135 138 -252 104 -140 118 -172 118 -277 0 -78 -3 -92 -37 -163 -21 -43
-78 -141 -128 -217 -103 -158 -135 -223 -150 -301 -19 -96 -7 -140 105 -384
115 -250 141 -344 133 -469 -5 -76 -10 -74 102 -48 l75 18 -1 89 c-1 112 -17
160 -129 395 -117 243 -135 328 -99 451 22 74 43 113 144 269 109 169 128 206
145 287 26 124 0 198 -134 377 -95 126 -116 163 -137 249 -33 128 -8 242 119
542 70 164 92 266 83 390 -11 156 -55 283 -143 408 -24 34 -39 63 -33 65 17 6
106 -75 156 -141 100 -133 148 -272 148 -437 0 -122 -14 -184 -80 -345 -82
-197 -96 -244 -101 -341 -8 -139 20 -203 185 -416 139 -179 155 -304 62 -488
-16 -31 -65 -114 -110 -184 -130 -203 -156 -287 -126 -407 9 -35 59 -149 111
-254 112 -225 126 -265 133 -368 5 -88 -5 -85 110 -38 l67 28 -3 44 c-6 73
-49 186 -126 329 -110 203 -130 259 -130 355 1 58 7 95 23 136 20 53 41 90
169 298 71 116 95 181 96 266 1 93 -31 159 -159 330 -135 179 -149 212 -149
345 1 113 8 142 93 380 54 152 68 251 53 373 -19 155 -73 282 -178 420 -20 26
-32 47 -27 47 20 0 137 -117 183 -182 65 -92 106 -196 127 -315 24 -143 10
-242 -64 -460 -53 -157 -57 -174 -57 -263 -1 -116 9 -138 149 -326 126 -169
159 -236 164 -332 5 -103 -24 -186 -122 -347 -154 -253 -175 -321 -138 -443
11 -37 60 -147 109 -244 80 -159 122 -271 122 -328 0 -19 2 -19 58 9 101 52
98 47 74 127 -12 40 -57 129 -106 213 -47 80 -93 167 -103 195 -26 75 -22 169
8 236 l26 55 0 -75 c1 -104 26 -163 139 -325 97 -138 154 -243 154 -282 0 -13
2 -23 5 -23 3 0 46 30 95 66 l90 66 -17 29 c-10 17 -35 48 -55 69 -21 22 -38
43 -38 47 0 4 13 23 29 42 l28 34 30 -21 c17 -12 48 -44 69 -72 21 -27 41 -50
44 -50 3 0 36 31 74 69 l69 69 -32 40 c-40 51 -96 101 -128 113 l-24 9 27 47
c15 27 29 50 30 51 9 13 115 -62 158 -110 l50 -58 24 22 c12 12 42 47 65 77
l42 54 -72 67 c-70 66 -111 91 -165 104 -24 6 -29 2 -52 -49 -29 -64 -57 -80
-126 -70 -124 17 -267 87 -384 187 l-38 34 40 81 c65 128 85 197 80 278 -5 93
-32 149 -151 310 -53 72 -111 157 -129 190 -32 58 -33 64 -32 170 1 97 5 124
38 230 47 148 66 247 66 333 -1 143 -56 307 -154 455 -67 103 -61 111 20 25
171 -182 249 -420 215 -654 -6 -43 -27 -135 -46 -203 -62 -222 -51 -283 87
-458 147 -186 194 -271 204 -372 l7 -61 67 -45 c81 -54 174 -91 270 -106 38
-7 70 -15 70 -20 0 -4 -8 -34 -19 -68 l-19 -60 54 -16 c53 -15 112 -55 191
-126 24 -22 47 -39 52 -39 8 0 115 171 109 175 -2 1 -18 7 -36 15 -18 7 -63
37 -99 67 -84 69 -132 93 -183 93 -22 0 -40 3 -40 7 0 3 5 35 11 70 l11 63 37
0 c75 0 104 -14 259 -125 91 -65 106 -62 146 27 55 120 55 114 -12 127 -43 8
-84 28 -153 72 -110 71 -148 89 -209 98 l-45 6 -3 83 -3 82 31 0 c51 0 146
-38 233 -92 113 -71 154 -88 213 -88 l52 0 21 85 c30 119 31 115 -37 115 -76
0 -142 24 -277 99 -112 62 -186 91 -237 91 -15 0 -28 2 -28 4 0 8 -30 151 -36
169 -4 14 1 17 31 17 67 0 158 -31 265 -88 160 -86 205 -104 291 -109 49 -4
79 -2 83 5 4 6 9 47 13 91 l6 81 -49 0 c-97 1 -185 28 -339 104 -161 81 -238
106 -322 106 -29 0 -53 4 -53 10 0 5 -19 49 -42 97 -24 49 -44 91 -46 96 -7
14 183 7 239 -9 30 -8 124 -48 209 -89 85 -41 182 -81 215 -90 62 -16 181 -20
188 -7 7 12 -12 228 -29 332 -41 247 -113 469 -228 705 -124 252 -280 471
-480 670 -386 385 -873 629 -1416 710 -99 15 -465 28 -540 19z m370 -455 c30
-4 103 -10 163 -14 59 -4 107 -10 106 -13 0 -4 -54 -54 -119 -110 l-119 -104
29 -76 c63 -170 74 -197 81 -206 4 -5 34 14 65 42 61 55 178 121 271 153 60
20 222 53 229 46 3 -2 -13 -33 -34 -68 -65 -106 -162 -311 -162 -341 0 -4 21
7 48 26 65 47 135 80 217 105 62 19 195 42 195 35 0 -2 -30 -45 -66 -96 -71
-101 -163 -258 -189 -325 -9 -23 -23 -44 -32 -47 -8 -4 -50 9 -92 28 -265 120
-539 173 -840 163 -260 -9 -445 -50 -688 -153 -57 -24 -108 -44 -113 -44 -6 0
-19 19 -29 43 -29 67 -128 235 -193 326 -33 46 -62 89 -64 96 -4 9 10 10 57 3
123 -17 223 -54 332 -124 37 -24 67 -42 67 -39 0 2 -20 50 -44 107 -43 99
-108 224 -148 281 -18 26 -18 27 -1 27 10 0 57 -9 105 -20 166 -36 312 -108
415 -204 18 -16 35 -28 37 -25 8 8 106 271 106 282 -1 7 -55 59 -121 117
l-120 105 108 8 c59 4 134 11 166 15 l58 7 66 153 66 153 66 -153 67 -153 54
-6z m-2056 -841 c83 -83 134 -170 167 -278 12 -41 23 -76 24 -78 1 -1 22 9 46
22 110 61 264 91 387 76 81 -11 152 -29 152 -40 0 -4 -33 -32 -72 -63 -117
-89 -287 -267 -384 -401 -21 -28 -22 -29 -67 -18 -107 27 -222 10 -377 -55
-216 -91 -254 -105 -309 -115 -38 -7 -74 -8 -101 -2 l-42 9 62 70 c138 156
253 328 315 472 52 118 76 222 82 356 5 108 8 117 26 117 11 0 51 -32 91 -72z
m3852 -38 c7 -259 135 -534 374 -808 45 -52 80 -96 77 -98 -2 -3 -26 -7 -53
-10 -67 -8 -151 15 -303 82 -194 86 -233 97 -341 98 -52 1 -113 -2 -135 -7
l-40 -8 -60 83 c-73 100 -232 263 -338 347 -75 59 -77 61 -54 70 66 25 120 34
207 34 109 0 194 -19 290 -66 36 -18 68 -33 71 -35 3 -1 11 22 18 51 26 119
123 276 213 345 65 50 71 44 74 -78z m-1875 -44 c152 -27 285 -117 348 -236
18 -34 30 -64 27 -67 -3 -4 -25 0 -48 8 -24 8 -77 14 -120 14 -64 -1 -85 -6
-134 -30 -90 -47 -99 -65 -99 -203 0 -169 25 -201 76 -99 19 37 22 39 57 33
110 -18 143 -18 182 -1 49 22 67 15 87 -32 32 -77 -10 -256 -93 -398 -59 -100
-167 -209 -249 -250 -52 -25 -71 -30 -140 -30 -99 0 -161 28 -253 110 -180
163 -303 509 -213 598 21 21 22 21 70 4 58 -20 85 -21 163 -5 50 10 62 10 94
-6 51 -24 58 -12 58 92 -1 109 -12 135 -70 172 -80 50 -191 61 -292 29 -18 -6
-36 -9 -38 -6 -9 8 24 77 61 128 61 83 195 157 318 178 76 13 123 12 208 -3z
m-383 -382 c41 -17 92 -61 92 -80 0 -9 -11 -9 -47 2 -62 19 -147 18 -185 -2
-30 -15 -32 -15 -45 2 -20 27 -16 61 9 78 29 21 127 21 176 0z m732 -4 c24
-24 25 -38 5 -67 -14 -20 -17 -21 -46 -6 -32 16 -152 15 -192 -2 -16 -7 -18
-4 -15 20 5 44 72 75 160 75 55 0 72 -4 88 -20z"/>
<path d="M2384 4149 c-71 -54 -130 -103 -132 -109 -2 -6 13 -7 45 -2 61 9 361
9 431 0 29 -4 52 -3 50 1 -2 5 -62 54 -134 109 l-130 100 -130 -99z"/>
<path d="M2404 2935 c-25 -17 -12 -30 50 -49 58 -18 89 -16 152 10 38 16 43
29 17 42 -27 14 -200 12 -219 -3z"/>
<path d="M2320 2772 c0 -2 16 -23 36 -48 52 -62 91 -84 154 -84 64 0 103 22
158 88 l40 47 -194 0 c-107 0 -194 -1 -194 -3z"/>
<path d="M4280 395 c0 -24 2 -25 70 -25 l70 0 0 -185 0 -185 30 0 30 0 0 185
0 185 65 0 c63 0 65 1 65 25 l0 25 -165 0 -165 0 0 -25z"/>
<path d="M4670 210 l0 -210 30 0 30 0 2 172 3 173 69 -173 c60 -149 73 -172
90 -170 16 2 34 38 86 165 37 90 70 166 73 170 4 3 7 -71 7 -165 l0 -172 30 0
30 0 0 210 0 210 -48 0 -48 0 -49 -122 c-27 -68 -56 -140 -66 -161 l-16 -39
-64 161 -64 161 -47 0 -48 0 0 -210z"/>
</g>
</svg>
